<svg xmlns="http://www.w3.org/2000/svg" version="1.1" xmlns:xlink="http://www.w3.org/1999/xlink" xmlns:svgjs="http://svgjs.com/svgjs" width="1440" height="560" preserveAspectRatio="none" viewBox="0 0 1440 560"><g mask="url(&quot;#SvgjsMask1017&quot;)" fill="none"><path d="M1488 560L0 560 L0 282.89Q78.3 289.19, 72 367.49Q134.46 309.95, 192 372.41Q210.67 319.08, 264 337.75Q295.88 249.63, 384 281.5Q467.12 244.62, 504 327.74Q546.5 250.25, 624 292.75Q689.55 238.3, 744 303.85Q786.4 274.25, 816 316.65Q888.38 269.02, 936 341.4Q1001.66 287.06, 1056 352.72Q1095.72 272.45, 1176 312.17Q1262.41 278.58, 1296 364.99Q1319.99 316.99, 1368 340.98Q1433.65 286.63, 1488 352.29z" fill="rgba(71, 198, 252, 1)"></path><path d="M1464 560L0 560 L0 419.04Q65.06 364.1, 120 429.16Q151.61 340.77, 240 372.38Q269.9 330.28, 312 360.19Q378.37 354.56, 384 420.92Q453.11 370.03, 504 439.14Q506.13 369.26, 576 371.39Q602.01 325.4, 648 351.41Q738.96 322.38, 768 413.34Q810.73 384.06, 840 426.79Q871.61 338.39, 960 370Q1004.43 342.43, 1032 386.86Q1088.82 371.68, 1104 428.49Q1158.84 363.33, 1224 418.17Q1254.18 328.35, 1344 358.53Q1410.68 305.21, 1464 371.9z" fill="rgba(68, 188, 239, 1)"></path><path d="M1512 560L0 560 L0 453.7Q32.31 414.01, 72 446.33Q161.34 415.67, 192 505.02Q207.76 448.78, 264 464.55Q338.37 418.92, 384 493.29Q393.5 430.79, 456 440.29Q497.9 410.19, 528 452.09Q589.69 441.78, 600 503.48Q615.62 447.1, 672 462.72Q692.98 411.7, 744 432.67Q829.52 398.2, 864 483.72Q905.68 453.4, 936 495.09Q936.77 423.86, 1008 424.62Q1067.2 411.82, 1080 471.03Q1145.66 416.69, 1200 482.35Q1205.73 416.09, 1272 421.82Q1340.64 370.47, 1392 439.11Q1488.88 416, 1512 512.88z" fill="rgba(60, 168, 214, 1)"></path><path d="M1464 560L0 560 L0 492.82Q88.19 461.01, 120 549.2Q162.5 519.71, 192 562.21Q216.69 466.9, 312 491.6Q358.58 466.18, 384 512.76Q438.92 495.68, 456 550.61Q506.33 528.94, 528 579.27Q551.8 483.07, 648 506.87Q689.76 476.63, 720 518.4Q799.16 477.56, 840 556.71Q912.9 509.61, 960 582.51Q962.27 512.78, 1032 515.06Q1061.45 472.51, 1104 501.96Q1198.39 476.36, 1224 570.75Q1244.29 471.04, 1344 491.33Q1413.32 440.64, 1464 509.96z" fill="rgba(31, 88, 112, 1)"></path></g><defs><mask id="SvgjsMask1017"><rect width="1440" height="560" fill="#ffffff"></rect></mask></defs></svg>